<svg xmlns="http://www.w3.org/2000/svg" width="581.93" height="148.13" viewBox="0 0 581.93 148.13"><g id="Group_8940" data-name="Group 8940" transform="translate(4395 -5867.85)"><path id="Path_21829" data-name="Path 21829" d="M6.66-63V0H22.32V-63ZM29.16,0A38.843,38.843,0,0,0,47.07-3.87a28.043,28.043,0,0,0,11.7-10.935,32.433,32.433,0,0,0,4.14-16.7,32.373,32.373,0,0,0-4.14-16.74,28.131,28.131,0,0,0-11.7-10.89A38.843,38.843,0,0,0,29.16-63H16.74v13.5H28.62a26.954,26.954,0,0,1,6.975.9,15.827,15.827,0,0,1,5.94,2.97,14.453,14.453,0,0,1,4.1,5.535A21.29,21.29,0,0,1,47.16-31.5a21.29,21.29,0,0,1-1.53,8.6,14.453,14.453,0,0,1-4.1,5.535A15.827,15.827,0,0,1,35.6-14.4a26.954,26.954,0,0,1-6.975.9H16.74V0ZM72.63-63V0H88.11V-63Zm41.31,31.5a21.2,21.2,0,0,1,2.205-9.855,16.543,16.543,0,0,1,6.21-6.705,17.776,17.776,0,0,1,9.405-2.43,17.717,17.717,0,0,1,9.45,2.43,16.334,16.334,0,0,1,6.12,6.705,21.566,21.566,0,0,1,2.16,9.855,21.2,21.2,0,0,1-2.205,9.855,16.543,16.543,0,0,1-6.21,6.705,17.6,17.6,0,0,1-9.315,2.43,17.776,17.776,0,0,1-9.405-2.43,16.543,16.543,0,0,1-6.21-6.705A21.2,21.2,0,0,1,113.94-31.5Zm-16.11,0a35.443,35.443,0,0,0,2.475,13.41,31.252,31.252,0,0,0,7.02,10.62A31.862,31.862,0,0,0,118.08-.5,36.635,36.635,0,0,0,131.76,1.98,36.384,36.384,0,0,0,145.35-.5,31.862,31.862,0,0,0,156.105-7.47a31.252,31.252,0,0,0,7.02-10.62A35.443,35.443,0,0,0,165.6-31.5a34.215,34.215,0,0,0-2.52-13.32,30.742,30.742,0,0,0-7.11-10.44,32.01,32.01,0,0,0-10.755-6.8A36.984,36.984,0,0,0,131.76-64.44a37.087,37.087,0,0,0-13.41,2.385,31.911,31.911,0,0,0-10.8,6.8A31.292,31.292,0,0,0,100.4-44.82,33.69,33.69,0,0,0,97.83-31.5ZM218.79-63v35.46L175.32-66.15V0H189.9V-35.46L233.46,3.15V-63ZM256.86,0h31.77V-12.51H256.86Zm0-50.49h31.77V-63H256.86Zm0,23.49h29.97V-39.24H256.86ZM246.78-63V0h14.58V-63Zm52.74,13.59h25.02L295.2,0h50.49V-13.05H319.14L348.93-63H299.52ZM16.74,30.05H44.91V17H16.74Zm0,24.66H44.01V42.47H16.74ZM6.66,17V80H21.24V17Zm49.77,0V80H71.91V17Zm28.8,0V80h15.66V17Zm22.5,63a38.843,38.843,0,0,0,17.91-3.87,28.043,28.043,0,0,0,11.7-10.935A32.433,32.433,0,0,0,141.48,48.5a32.373,32.373,0,0,0-4.14-16.74,28.131,28.131,0,0,0-11.7-10.89A38.843,38.843,0,0,0,107.73,17H95.31V30.5h11.88a26.954,26.954,0,0,1,6.975.9,15.827,15.827,0,0,1,5.94,2.97,14.453,14.453,0,0,1,4.1,5.535,21.29,21.29,0,0,1,1.53,8.6,21.29,21.29,0,0,1-1.53,8.6,14.453,14.453,0,0,1-4.1,5.535,15.827,15.827,0,0,1-5.94,2.97,26.954,26.954,0,0,1-6.975.9H95.31V80Zm53.55,0h31.77V67.49H161.28Zm0-50.49h31.77V17H161.28Zm0,23.49h29.97V40.76H161.28ZM151.2,17V80h14.58V17Zm61.2,40.86-10.62,7.65a29.259,29.259,0,0,0,6.03,8.28,29.569,29.569,0,0,0,29.115,6.885,23.79,23.79,0,0,0,7.47-3.825,18.511,18.511,0,0,0,5.22-6.255,18.219,18.219,0,0,0,1.935-8.505,18.314,18.314,0,0,0-1.26-7.02,17.529,17.529,0,0,0-3.465-5.4,22.216,22.216,0,0,0-5.085-4,42.269,42.269,0,0,0-6.21-2.925q-4.41-1.53-7.515-2.88a15.92,15.92,0,0,1-4.77-2.97,5.114,5.114,0,0,1-1.665-3.78,4.3,4.3,0,0,1,1.71-3.465,7.663,7.663,0,0,1,4.95-1.4,11.013,11.013,0,0,1,4.545.945,13.747,13.747,0,0,1,3.87,2.61,18.414,18.414,0,0,1,3.1,3.915l11.61-6.48a25.909,25.909,0,0,0-4.68-6.39,24.5,24.5,0,0,0-7.7-5.22,26.637,26.637,0,0,0-10.935-2.07,28.235,28.235,0,0,0-11.115,2.115,18.34,18.34,0,0,0-7.92,6.165,16.007,16.007,0,0,0-2.925,9.63,17.072,17.072,0,0,0,1.71,7.965,19.056,19.056,0,0,0,4.32,5.58,25.3,25.3,0,0,0,5.535,3.735A51.323,51.323,0,0,0,222.84,53q4.59,1.71,7.38,3.06a12.32,12.32,0,0,1,4.05,2.835,5.846,5.846,0,0,1,1.26,3.915,5.429,5.429,0,0,1-2.16,4.545,8.731,8.731,0,0,1-5.49,1.665,13.751,13.751,0,0,1-5.985-1.35,17.619,17.619,0,0,1-5.22-3.87A28.962,28.962,0,0,1,212.4,57.86Z" transform="translate(-4162 5934)" fill="#0070aa"></path><rect id="Rectangle_2554" data-name="Rectangle 2554" width="202" height="144" rx="14" transform="translate(-4395 5871)" fill="#0070aa"></rect><g id="Untitled-2" transform="translate(-4390.756 6030.998)"><path id="Path_21827" data-name="Path 21827" d="M21-87.19v51.81H41.027c10.972,0,22.03-.435,24.555-.958,7.4-1.48,18.286-7.227,24.12-12.539,10.449-9.753,15.325-20.115,16.719-35.353,1.567-18.2,7.75-27.6,21.769-33.176,4.18-1.742,6.792-1.916,24.555-2.264l19.766-.348V-139H152.485c-10.972,0-22.03.435-24.555.958A67.75,67.75,0,0,0,116-133.6a52.805,52.805,0,0,0-22.9,22.03c-4.093,7.924-4.963,11.146-5.921,22.2-.958,10.71-2.438,15.412-6.531,21.159A32.084,32.084,0,0,1,65.5-57.062c-3.918,1.48-6.879,1.916-14.89,2l-10.014.087v-64.436l10.014.087c8.011.087,10.972.522,14.89,2,6.444,2.438,11.581,6.182,14.89,10.972,2.874,4.005,4.18,4.876,4.18,2.612,0-.7,2-5.05,4.354-9.753l4.441-8.533-4.267-3.918a60.3,60.3,0,0,0-10.362-7.227C69.066-138.216,64.277-139,41.289-139H21Z" transform="translate(0 0)" fill="#fff"></path><path id="Path_21828" data-name="Path 21828" d="M125.854-87.778a84.666,84.666,0,0,0-1.219,10.014l-.435,6.792h42.493V-91H126.725Z" transform="translate(-13.338 -6.204)" fill="#fff"></path></g></g></svg>